<?xml version="1.0" encoding="utf-8"?>
<!-- Generator: Adobe Illustrator 23.0.6, SVG Export Plug-In . SVG Version: 6.00 Build 0)  -->
<svg version="1.1" id="Layer_1" xmlns="http://www.w3.org/2000/svg" xmlns:xlink="http://www.w3.org/1999/xlink" x="0px" y="0px"
	 width="45.2px" height="45.2px" viewBox="0 0 45.2 45.2" style="enable-background:new 0 0 45.2 45.2;" xml:space="preserve">
<style type="text/css">
	.st0{fill:none;stroke:#0071BC;stroke-miterlimit:10;}
	.st1{fill:#0071BC;}
</style>
<g>
	<circle class="st0" cx="22.6" cy="22.6" r="22.1"/>
	<g>
		<path class="st1" d="M10.7,24.2c2.7-0.8,5.4-1.7,8.1-2.5c0.8-0.2,1.6-0.5,2.4-0.7c0.1,0.3,0.2,0.5,0.3,0.7
			c0.1,0.2,0.1,0.4,0.1,0.6c-0.1,0.1-0.2,0.1-0.3,0.2c-0.9,0.4-1.2,1.1-0.9,1.9c0.3,0.8,1,1.2,1.9,0.9c2-0.6,4-1.2,6-1.9
			c0.8-0.3,1.1-1,0.9-1.8c-0.2-0.7-0.8-1.1-1.6-1c-0.2,0-0.3,0-0.5,0.1c-0.6-1.8-1.2-3.6-1.7-5.3c0.1-0.1,0.2-0.2,0.3-0.2
			c0.9-0.5,1.1-1.3,0.8-2c-0.3-0.7-1.1-1-2-0.7c-1,0.3-2,0.7-3,1c-1,0.3-1.9,0.6-2.8,0.9c-0.7,0.3-1,0.9-0.8,1.7
			c0.1,0.7,0.7,1.1,1.4,1.1c0.2,0,0.5,0,0.8-0.1c0.1,0.3,0.2,0.6,0.3,0.9c-0.3,0.1-0.5,0.2-0.7,0.3c-2,0.6-4.1,1.3-6.1,1.9
			c-1.3,0.4-2.5,0.8-3.8,1.2c-1.1,0.4-1.5,1.5-0.9,2.4C9,24.2,9.7,24.5,10.7,24.2z"/>
		<path class="st1" d="M36.4,32.2c-0.7-0.1-1.3,0-2,0c-0.3,0-0.6,0-1,0c0-0.5,0-0.8,0-1.2c0.1-0.8-0.1-1.5-0.9-1.9
			c0-0.1,0-0.2,0-0.3c0.1-1.3-0.9-2-2-1.9c-3.1,0-6.3,0-9.4,0c-1,0-1.9,0.6-1.9,1.8c0,0.2-0.1,0.5-0.3,0.6c-0.5,0.4-0.6,0.8-0.6,1.3
			c0,0.5,0,1,0,1.6c-0.4,0-0.7,0-1,0c-2.7,0-5.4,0-8.1,0c-0.2,0-0.5,0-0.7,0c-0.1,0.1-0.3,0.3-0.3,0.4c0,0.1,0.2,0.3,0.3,0.4
			c0.2,0.1,0.4,0.1,0.7,0.1c8.8,0,17.7,0,26.5,0c0.2,0,0.4,0,0.6,0c0.2-0.1,0.4-0.3,0.4-0.4C36.8,32.5,36.6,32.3,36.4,32.2z
			 M21.3,27.7c3.1,0,6.3,0,9.4,0c0.9,0,1.2,0.4,1,1.4c-3.9,0-7.7,0-11.5,0C20.1,28.1,20.4,27.7,21.3,27.7z"/>
		<path class="st1" d="M32.9,24c0.2,0.2,0.3,0.3,0.4,0.4c1.1-0.2,2.1-0.3,3.1-0.5c0.2,0,0.3-0.3,0.4-0.5c-0.2-0.1-0.4-0.3-0.5-0.3
			c-1,0.1-2,0.2-3,0.4C33.2,23.6,33.1,23.8,32.9,24z"/>
		<path class="st1" d="M33.6,25.4c-0.1,0-0.3-0.1-0.5-0.1c-0.1,0.1-0.3,0.2-0.3,0.4c-0.1,0.3,0.1,0.4,0.4,0.5
			c0.8,0.3,1.6,0.5,2.3,0.8c0.3,0.1,0.6,0.2,0.7-0.2c0.1-0.4-0.2-0.5-0.5-0.6C35,25.9,34.3,25.7,33.6,25.4z"/>
		<path class="st1" d="M32.6,22.6c0.1,0,0.2-0.1,0.3-0.1c0.6-0.6,1.3-1.2,1.8-1.9c0.1-0.1,0-0.4-0.1-0.5c-0.1-0.1-0.4-0.1-0.5,0
			c-0.6,0.6-1.2,1.2-1.8,1.8c-0.1,0.1-0.1,0.3,0,0.5C32.4,22.4,32.5,22.5,32.6,22.6z"/>
	</g>
</g>
</svg>
