<?xml version="1.0" encoding="utf-8"?>
<!-- Generator: Adobe Illustrator 23.0.6, SVG Export Plug-In . SVG Version: 6.00 Build 0)  -->
<svg version="1.1" id="Layer_1" xmlns="http://www.w3.org/2000/svg" xmlns:xlink="http://www.w3.org/1999/xlink" x="0px" y="0px"
	 width="46.5px" height="46.5px" viewBox="0 0 46.5 46.5" style="enable-background:new 0 0 46.5 46.5;" xml:space="preserve">
<style type="text/css">
	.st0{display:none;fill:none;stroke:#0071BC;stroke-miterlimit:10;}
	.st1{fill:none;stroke:#0071BC;stroke-miterlimit:10;}
	.st2{fill:#0071BC;}
	.st3{display:none;}
	.st4{display:inline;fill:#0071BC;}
</style>
<circle class="st0" cx="316.8" cy="-0.9" r="22.1"/>
<circle class="st0" cx="316.8" cy="87.9" r="22.1"/>
<circle class="st0" cx="316.8" cy="174.7" r="22.1"/>
<circle class="st0" cx="245.1" cy="174.7" r="22.1"/>
<g>
	<circle class="st1" cx="23.2" cy="23.2" r="22.1"/>
	<g>
		<path class="st2" d="M11.8,34.5c0.3-1.4,0.5-2.6,0.7-3.9c0.9-4.7,1.8-9.5,2.7-14.2c0.1-0.4,0.3-0.6,0.7-0.8c2-0.7,4.1-1.3,6-2.2
			c2.4-1.1,4.5-2.7,6.1-4.8c0.2-0.3,0.4-0.6,0.7-1c0.3,1.1,0.7,2.1,1,3.1c1.1,3.5,2.2,6.9,3.3,10.4c0.1,0.3,0.1,0.6-0.1,0.9
			c-0.7,0.7-1.3,1.6-2,2.2c-3.7,3.4-7.9,5.9-12.5,7.8c-2,0.8-4,1.5-6.1,2.3C12.2,34.4,12.1,34.4,11.8,34.5z M28.2,11.2
			c-1.8,1.8-3.8,3.2-6.1,4.1c-1.5,0.6-3.1,1.2-4.7,1.7c-0.4,0.1-0.6,0.3-0.6,0.7c-0.2,1-0.4,2-0.6,3.1c-0.2,1.1-0.4,2.2-0.6,3.4
			c1.2-0.4,2.2-0.7,3.3-1.1c3.9-1.3,7.4-3.1,10.5-5.9c0.5-0.4,0.6-0.8,0.4-1.4C29.1,14.3,28.7,12.8,28.2,11.2z"/>
		<path class="st2" d="M33.6,28.2c0.4,1,0.7,1.9,1.1,2.9c-5,1.8-10.3,2.3-15.5,2.9C24.1,32.4,29.1,31,33.6,28.2z"/>
		<path class="st2" d="M19.7,32.7c4.9-2.2,9.4-4.9,13.1-8.7c0.3,0.8,0.7,1.5,0.9,2.3c0,0.1-0.1,0.3-0.2,0.4
			c-0.9,0.6-1.7,1.2-2.7,1.7c-3.5,1.9-7.2,3.2-10.9,4.3C20,32.7,19.9,32.7,19.7,32.7z"/>
		<path class="st2" d="M18.4,34.9c5.2-0.5,10.5-0.9,15.6-2.3c0.1,0.3,0.2,0.6,0.3,1c0.1,0.3,0.2,0.6,0.3,1
			C29.2,34.6,23.8,34.8,18.4,34.9z"/>
	</g>
</g>
<g class="st3">
	<path class="st4" d="M245.2,182c-1.1,1.9-2.1,3.8-3.3,5.8c-0.6-0.9-1.2-1.7-1.7-2.6c-0.3-0.5-0.7-0.7-1.2-0.7c-0.9,0.1-1.7,0-2.8,0
		c0.9-1.6,1.8-3.1,2.7-4.7c-2.7-2.3-4-5.2-3.8-8.7c0.2-2.7,1.3-4.9,3.3-6.7c4.1-3.7,10.2-3.5,14,0.4c3.6,3.7,4.4,10.3-0.8,15
		c0.9,1.5,1.7,3.1,2.7,4.7c-1,0-1.9,0-2.8,0c-0.6,0-1,0.2-1.3,0.7c-0.5,0.8-1.1,1.6-1.7,2.5C247.3,185.8,246.3,184,245.2,182z
		 M245.1,180.5c4.7,0,8.7-3.9,8.7-8.6c0-4.8-3.9-8.8-8.7-8.8c-4.8,0-8.7,3.9-8.7,8.7C236.4,176.6,240.3,180.5,245.1,180.5z"/>
	<path class="st4" d="M249.5,175.5c-0.2,0.2-0.6,0.5-0.9,0.8c-0.8-0.1-1.2-1.4-2-0.7c-0.5,0.4-0.7,1.3-1,2c-0.3,0-0.7,0-1.1,0
		c-0.6-0.6,0.1-1.7-0.9-2.1c-1-0.4-1.3,0.7-2.2,0.8c-0.2-0.2-0.4-0.6-0.8-1c0-0.6,1.2-0.9,0.8-1.9c-0.4-1-1.4-0.4-2.1-0.9
		c0-0.3,0-0.8,0-1.2c0.6-0.5,1.7,0.1,2.1-0.9c0.4-1-0.8-1.3-0.8-2.2c0.2-0.2,0.5-0.5,0.9-0.7c0.8,0,1.1,1.3,2.1,0.8
		c1-0.4,0.4-1.4,0.9-2.1c0.4,0,0.8,0,1.2,0c0.5,0.6-0.1,1.9,0.9,2c0.6,0.1,1.4-0.4,2.2-0.7c0.2,0.2,0.5,0.5,0.7,0.8
		c-0.1,0.9-1.5,1.3-0.8,2.1c0.4,0.5,1.3,0.7,2,1c0,0.3,0,0.7,0,1.1c-0.7,0.5-1.9-0.1-2.1,1C248.7,174,249.3,174.8,249.5,175.5z
		 M245.1,169.7c-1.1,0-2.1,1-2.1,2.1c0,1.1,1,2.1,2.1,2.1c1.1,0,2.1-1,2.1-2.1C247.3,170.7,246.2,169.7,245.1,169.7z"/>
</g>
<g class="st3">
	<path class="st4" d="M318.5-15.3c0,0.4,0,0.8,0.1,1.2c0,0.4-0.1,0.8,0.6,0.6c0,0.4,0,0.6,0,1c-0.7,0-0.6,0.5-0.5,1.1
		c0.4,0,0.7,0,1.1,0c0,1.2,0,2.4,0,3.6c0,0.4,0.1,0.6,0.5,0.7c1,0.4,1.5,1.2,1.7,2.2c0,0.2,0.2,0.5,0.4,0.7c2.7,1.6,4.2,4.5,3.8,7.4
		c-0.4,3-2.6,5.2-5.6,6c-0.2,0-0.4,0.2-0.5,0.3c0.2,0.1,0.4,0.2,0.6,0.2c1.1,0,2.2,0,3.3,0c1,0,1.6,0.5,1.6,1.6c0,0.7,0,1.4,0,2.2
		c-6.1,0-12.2,0-18.3,0c0-0.9-0.1-1.7,0-2.6c0.1-0.8,0.6-1.2,1.6-1.2c3.1,0,6.2,0,9.3,0c0.3,0,0.5,0,0.8,0c0-0.7,0-1.3,0-1.9
		c-2.6,0-5.2,0-7.8,0c0-0.4,0-0.7,0-1.1c3.3,0,6.6,0,10,0c0,0.3,0,0.7,0,1c-0.3,0.1-0.6,0.1-1,0.2c0,0,0,0.1,0,0.2
		c2.1,0,4.4-2.2,4.9-4.7c0.6-2.6-0.9-5.5-3-6.5c-0.7,0.5-1.3,1-1.9,1.5c-0.1,0.1-0.2,0.3-0.2,0.5c0,1,0,1.9,0,2.9
		c-0.4,0-0.8,0.1-1.2,0.1c0,0.6,0,1.2,0,1.9c-1.5,0-3,0-4.5,0c0-0.6,0-1.2,0-1.8c-0.4,0-0.8,0-1.2,0c0-4.4,0-8.8,0-13.3
		c0.4,0,0.7,0,1.1-0.1c0-0.3,0-0.6,0-0.9c-0.8,0-0.5-0.6-0.5-1.1c0.6,0,0.7-0.3,0.6-0.7c0-0.4,0-0.8,0-1.2
		C315.5-15.3,317-15.3,318.5-15.3z M318.7-1.4c-1.8-0.6-2.6-1.6-2.6-3c0-1.4,0.8-2.3,2.6-3c0-0.9,0-1.9,0-2.8c-1.6,0-3.1,0-4.6,0
		c0,3.7,0,7.3,0,10.9c1.6,0,3.1,0,4.6,0C318.7,0,318.7-0.8,318.7-1.4z M308.3,12.4c5.4,0,10.8,0,16.2,0c0-0.2,0-0.3,0-0.4
		c0-1.2,0-1.2-1.2-1.2c-4.7,0-9.3,0-14,0c-0.2,0-0.4-0.1-0.6,0c-0.2,0.1-0.4,0.3-0.4,0.4C308.3,11.6,308.3,12,308.3,12.4z
		 M320.7-3.7c-0.6-0.1-1.1-0.2-1.6-0.3c0-0.3,0-0.7,0-1.1c0.3,0,0.6,0.1,0.8,0.1c0.3,0,0.6,0.1,0.9,0.1c-0.2-0.9-0.9-1.5-1.8-1.4
		c-0.9,0-1.6,0.7-1.8,1.6c-0.1,0.9,0.4,1.7,1.3,2C319.4-2.3,320.2-2.7,320.7-3.7z M317.5-12.3c-0.8,0-1.5,0-2.3,0c0,0.3,0,0.6,0,0.9
		c0.8,0,1.5,0,2.3,0C317.5-11.7,317.5-12,317.5-12.3z M317.5,2.7c0-0.3,0-0.5,0-0.7c-0.8,0-1.5,0-2.3,0c0,0.3,0,0.5,0,0.7
		C316,2.7,316.7,2.7,317.5,2.7z M317.5-14.2c-0.8,0-1.6,0-2.3,0c0,0.3,0,0.5,0,0.7c0.8,0,1.5,0,2.3,0
		C317.5-13.7,317.5-13.9,317.5-14.2z"/>
	<path class="st4" d="M326.3-5.4c0.2,0.2,0.4,0.4,0.7,0.7c-0.3,0.3-0.6,0.5-0.9,0.7c-0.2-0.3-0.4-0.5-0.7-0.7
		C325.8-4.9,326-5.1,326.3-5.4z"/>
	<path class="st4" d="M327.4-2.2c-0.2-0.3-0.4-0.6-0.6-0.9c0.3-0.2,0.6-0.4,0.9-0.7c0.2,0.3,0.4,0.6,0.6,1
		C328.1-2.6,327.8-2.4,327.4-2.2z"/>
	<path class="st4" d="M322.9-6.7c-0.3-0.2-0.6-0.3-0.9-0.5c0.1-0.3,0.3-0.6,0.4-1c0.3,0.2,0.6,0.3,1,0.5C323.2-7.3,323-7,322.9-6.7z
		"/>
	<path class="st4" d="M324.4-7c0.4,0.3,0.6,0.5,0.9,0.7c-0.3,0.3-0.5,0.6-0.7,0.9c-0.3-0.2-0.5-0.4-0.8-0.6
		C324-6.4,324.2-6.7,324.4-7z"/>
	<path class="st4" d="M328.9,1.9c-0.1-0.4-0.1-0.6-0.2-1c0.3-0.1,0.7-0.2,1.1-0.3c0.1,0.4,0.2,0.7,0.2,1.1
		C329.6,1.7,329.3,1.8,328.9,1.9z"/>
	<path class="st4" d="M308.2-6.3c0.3-0.2,0.6-0.4,0.9-0.7c0.2,0.3,0.4,0.6,0.6,0.9c-0.3,0.2-0.5,0.4-0.9,0.6
		C308.7-5.8,308.5-6,308.2-6.3z"/>
	<path class="st4" d="M307.4-4c-0.2-0.2-0.5-0.4-0.8-0.7c0.3-0.3,0.5-0.6,0.7-0.8c0.3,0.3,0.5,0.5,0.8,0.8
		C307.9-4.5,307.6-4.3,307.4-4z"/>
	<path class="st4" d="M304.7,1.9c-0.4-0.1-0.7-0.1-1.1-0.2c0.1-0.4,0.1-0.7,0.2-1.1c0.4,0.1,0.7,0.2,1,0.3
		C304.8,1.2,304.8,1.5,304.7,1.9z"/>
	<path class="st4" d="M310.2-7.7c0.4-0.2,0.7-0.3,1-0.5c0.1,0.3,0.3,0.6,0.4,1c-0.3,0.2-0.6,0.3-0.9,0.5
		C310.6-7,310.5-7.3,310.2-7.7z"/>
	<path class="st4" d="M304.2-0.6c0.2-0.4,0.3-0.7,0.4-1.1c0.3,0.2,0.6,0.3,1,0.5c-0.1,0.3-0.2,0.6-0.4,0.9
		C304.9-0.4,304.6-0.5,304.2-0.6z"/>
	<path class="st4" d="M304.6,4c-0.3,0-0.6,0-1,0.1c0-0.4,0-0.7,0-1.1c0.3,0,0.6,0,1,0C304.6,3.3,304.6,3.6,304.6,4z"/>
	<path class="st4" d="M329.1,3c0.3,0,0.7,0,1,0c0,0.3,0,0.7,0,1.1c-0.3,0-0.7,0-1-0.1C329.1,3.7,329.1,3.4,329.1,3z"/>
	<path class="st4" d="M304.7,5.2c0.1,0.4,0.1,0.7,0.1,1c-0.3,0.1-0.7,0.2-1,0.3c-0.1-0.4-0.1-0.7-0.2-1.1
		C303.9,5.3,304.3,5.2,304.7,5.2z"/>
	<path class="st4" d="M305.1,7.3c0.1,0.3,0.2,0.4,0.2,0.6c0,0.1,0.1,0.2,0.1,0.4c-0.3,0.1-0.6,0.3-1,0.4c-0.1-0.3-0.3-0.7-0.4-1
		C304.4,7.5,304.7,7.4,305.1,7.3z"/>
	<path class="st4" d="M328.5,7.3c0.3,0.1,0.6,0.2,1,0.3c-0.1,0.4-0.2,0.7-0.4,1C328,8.4,328,8.3,328.5,7.3z"/>
	<path class="st4" d="M328.4-0.2c-0.1-0.3-0.2-0.6-0.4-0.9c0.3-0.2,0.6-0.3,1-0.5c0.1,0.4,0.3,0.7,0.4,1.1
		C329-0.4,328.7-0.3,328.4-0.2z"/>
	<path class="st4" d="M305.8-3.7c0.3,0.2,0.6,0.4,0.9,0.6c-0.2,0.3-0.3,0.5-0.5,0.9c-0.3-0.2-0.6-0.3-0.9-0.5
		C305.4-3.1,305.6-3.4,305.8-3.7z"/>
	<path class="st4" d="M330,5.3c-0.1,0.4-0.1,0.7-0.2,1.1c-0.4-0.1-0.7-0.1-1-0.2c0-0.3,0.1-0.7,0.1-1C329.3,5.2,329.6,5.2,330,5.3z"
		/>
	<path class="st4" d="M305.4,10.4c-0.1-0.2-0.2-0.4-0.3-0.6c0.3-0.2,0.6-0.3,0.9-0.5c0.1,0.2,0.2,0.3,0.3,0.5
		C306,10,305.8,10.2,305.4,10.4z"/>
	<path class="st4" d="M328.2,10.4c-0.4-0.2-0.6-0.4-0.9-0.6c0.1-0.2,0.2-0.3,0.3-0.5c0.3,0.2,0.6,0.3,0.9,0.5
		C328.4,10,328.3,10.2,328.2,10.4z"/>
</g>
<g class="st3">
	<path class="st4" d="M314.3,83.1c-0.1-0.3-0.2-0.6-0.3-0.9c-0.3,0-0.5,0.1-0.8,0.1c-0.7,0-1.3-0.4-1.4-1.1
		c-0.2-0.8,0.1-1.4,0.8-1.7c0.9-0.3,1.9-0.6,2.8-0.9c1-0.3,2-0.7,3-1c0.9-0.3,1.6,0,2,0.7c0.4,0.7,0.1,1.5-0.8,2
		c-0.1,0.1-0.2,0.1-0.3,0.2c0.6,1.8,1.1,3.5,1.7,5.3c0.2,0,0.4,0,0.5-0.1c0.8-0.1,1.4,0.3,1.6,1c0.2,0.8-0.1,1.6-0.9,1.8
		c-2,0.7-4,1.3-6,1.9c-0.9,0.3-1.6-0.1-1.9-0.9c-0.3-0.8,0.1-1.5,0.9-1.9c0.1,0,0.2-0.1,0.3-0.2c-0.1-0.2-0.1-0.4-0.1-0.6
		c-0.1-0.2-0.1-0.4-0.3-0.7c-0.8,0.2-1.6,0.5-2.4,0.7c-2.7,0.8-5.4,1.7-8.1,2.5c-0.9,0.3-1.6,0-2-0.6c-0.6-0.9-0.2-2,0.9-2.4
		c1.2-0.4,2.5-0.8,3.8-1.2c2-0.6,4.1-1.3,6.1-1.9C313.8,83.3,314,83.2,314.3,83.1z M316.6,87.3c1.3-0.4,2.5-0.8,3.7-1.2
		c-0.6-1.9-1.2-3.7-1.8-5.5c-1.3,0.4-2.5,0.8-3.7,1.2C315.4,83.7,316,85.5,316.6,87.3z M308.3,87.6c2.3-0.7,4.5-1.4,6.8-2.1
		c-0.2-0.6-0.4-1-0.5-1.5c-2.3,0.7-4.5,1.4-6.7,2.1C308,86.6,308.2,87.1,308.3,87.6z M319.7,78.9c0-0.3-0.2-0.6-0.5-0.6
		c-0.2,0-0.3,0-0.5,0.1c-1.8,0.6-3.6,1.2-5.4,1.7c-0.2,0.1-0.4,0.1-0.5,0.3c-0.1,0.2-0.2,0.5-0.1,0.7c0.1,0.2,0.4,0.3,0.6,0.3
		c0.2,0,0.4-0.1,0.6-0.1c0.6-0.2,1.3-0.4,1.9-0.6c1.1-0.4,2.2-0.7,3.3-1.1C319.3,79.5,319.7,79.4,319.7,78.9z M315.8,89.7
		c0.3-0.1,0.4-0.1,0.6-0.2c1.4-0.4,2.8-0.9,4.1-1.3c0.5-0.2,1-0.3,1.5-0.5c0.4-0.2,0.6-0.5,0.4-0.8c-0.2-0.4-0.4-0.5-0.8-0.4
		c-0.1,0-0.2,0.1-0.2,0.1c-1.7,0.6-3.5,1.1-5.2,1.7c-0.2,0.1-0.4,0.1-0.6,0.2c-0.3,0.2-0.4,0.4-0.3,0.7
		C315.4,89.5,315.6,89.6,315.8,89.7z M305.2,86.9c-0.5,0.2-0.9,0.3-1.3,0.4c-0.4,0.2-0.6,0.6-0.5,1c0.1,0.4,0.5,0.6,0.9,0.5
		c0.5-0.1,0.9-0.3,1.4-0.4C305.6,87.8,305.4,87.4,305.2,86.9z M306.6,88.1c0.3-0.1,0.6-0.2,0.9-0.4c-0.2-0.5-0.4-1-0.5-1.5
		c-0.3,0.1-0.6,0.2-0.9,0.4C306.3,87.2,306.4,87.6,306.6,88.1z"/>
	<path class="st4" d="M312.6,97.5c0-0.6,0-1.1,0-1.6c0-0.5,0.1-1,0.6-1.3c0.2-0.1,0.3-0.4,0.3-0.6c0-1.1,0.9-1.8,1.9-1.8
		c3.1,0,6.3,0,9.4,0c1,0,2.1,0.7,2,1.9c0,0.1,0,0.2,0,0.3c0.7,0.4,0.9,1.1,0.9,1.9c0,0.4,0,0.7,0,1.2c0.3,0,0.7,0,1,0
		c0.7,0,1.3,0,2,0c0.2,0,0.4,0.2,0.4,0.4c0,0.1-0.2,0.3-0.4,0.4c-0.2,0.1-0.4,0-0.6,0c-8.8,0-17.7,0-26.5,0c-0.2,0-0.5,0-0.7-0.1
		c-0.1,0-0.3-0.3-0.3-0.4c0-0.2,0.2-0.4,0.3-0.4c0.2-0.1,0.5,0,0.7,0c2.7,0,5.4,0,8.1,0C312,97.5,312.3,97.5,312.6,97.5z
		 M326.9,97.5c0-0.4,0-0.8,0-1.2c0-1-0.1-1.1-1.1-1.1c-3.7,0-7.5,0-11.2,0c-0.2,0-0.4,0-0.6,0c-0.4,0-0.6,0.2-0.6,0.6
		c0,0.5,0,1.1,0,1.6C318,97.5,322.4,97.5,326.9,97.5z M325.9,94.4c0.1-1-0.1-1.4-1-1.4c-3.1,0-6.3,0-9.4,0c-0.9,0-1.2,0.4-1,1.4
		C318.2,94.4,322.1,94.4,325.9,94.4z"/>
	<path class="st4" d="M327.6,89.7c-0.1-0.1-0.3-0.2-0.4-0.4c0.1-0.1,0.3-0.4,0.4-0.4c1-0.2,2-0.3,3-0.4c0.2,0,0.4,0.2,0.5,0.3
		c-0.1,0.2-0.2,0.4-0.4,0.5C329.7,89.3,328.7,89.5,327.6,89.7z"/>
	<path class="st4" d="M327.3,90.6c0.2,0.1,0.4,0.1,0.5,0.1c0.7,0.2,1.4,0.5,2.1,0.7c0.3,0.1,0.6,0.2,0.5,0.6
		c-0.1,0.3-0.4,0.3-0.7,0.2c-0.8-0.3-1.6-0.5-2.3-0.8c-0.2-0.1-0.4-0.2-0.4-0.5C327,90.8,327.2,90.7,327.3,90.6z"/>
	<path class="st4" d="M326.8,87.9c-0.1-0.1-0.3-0.1-0.3-0.2c0-0.1-0.1-0.4,0-0.5c0.6-0.6,1.2-1.2,1.8-1.8c0.1-0.1,0.4-0.1,0.5,0
		c0.1,0.1,0.1,0.4,0.1,0.5c-0.6,0.6-1.2,1.3-1.8,1.9C327.1,87.8,327,87.8,326.8,87.9z"/>
</g>
<g class="st3">
	<path class="st4" d="M304.6,185.6c0-6.4,0-12.8,0-19.2c0,0,0,0,0-0.1c0.2-0.8,0.7-1.2,1.6-1.2c0.6,0,1.1,0,1.7,0c0.3,0,0.6,0,0.9,0
		c0-0.2,0-0.5,0-0.7c0-0.2,0-0.4,0.1-0.5c0.2-0.8,1.1-1.4,1.9-1.3c0.9,0.1,1.6,0.9,1.6,1.8c0,0.3,0,0.5,0,0.8c2.9,0,5.8,0,8.7,0
		c0-0.2,0-0.5,0-0.7c0-1,0.8-1.8,1.8-1.8c1,0,1.8,0.8,1.8,1.8c0,0.2,0,0.4,0,0.7c0.1,0,0.2,0,0.3,0c0.8,0,1.6,0,2.4,0
		c0.7,0,1.2,0.3,1.5,1c0,0,0.1,0.1,0.1,0.1c0,6.5,0,13,0,19.5c-0.4,0.8-1,1.1-1.9,1.1c-2.3,0-4.6,0-6.8,0c-4.7,0-9.4,0-14.1,0
		C305.4,186.9,304.8,186.4,304.6,185.6C304.6,185.6,304.6,185.6,304.6,185.6z M328,171c-7.5,0-15,0-22.5,0c0,0.1,0,0.2,0,0.3
		c0,4,0,7.9,0,11.9c0,0.6,0,1.3,0,1.9c0,0.5,0.2,0.7,0.7,0.7c0.1,0,0.2,0,0.4,0c6.9,0,13.8,0,20.7,0c0.5,0,0.7-0.2,0.7-0.7
		c0-4.6,0-9.2,0-13.8C328,171.2,328,171.1,328,171z M308.9,166.1c-0.9,0-1.7,0-2.6,0c-0.5,0-0.7,0.2-0.7,0.7c0,0.9,0,1.9,0,2.8
		c0,0.4,0,0.4,0.4,0.4c7.2,0,14.5,0,21.7,0c0.1,0,0.3,0,0.4,0c0-0.1,0-0.1,0-0.1c0-1.1,0-2.1,0-3.2c0-0.4-0.2-0.6-0.6-0.6
		c-0.6,0-1.2,0-1.7,0c-0.3,0-0.6,0-0.9,0c0,0.2,0,0.4,0,0.6c0,1.1-0.8,1.9-1.8,1.9c-1,0-1.8-0.8-1.8-1.9c0-0.2,0-0.4,0-0.6
		c-2.9,0-5.8,0-8.7,0c0,0.2,0,0.5,0,0.7c0,1-0.8,1.8-1.8,1.8c-1,0-1.8-0.8-1.8-1.8C308.9,166.6,308.9,166.4,308.9,166.1z
		 M311.4,165.6c0-0.4,0-0.8,0-1.2c0-0.5-0.3-0.8-0.8-0.8c-0.5,0-0.8,0.3-0.8,0.8c0,0.8,0,1.6,0,2.4c0,0.5,0.3,0.8,0.8,0.8
		c0.4,0,0.8-0.3,0.8-0.8C311.4,166.4,311.4,166,311.4,165.6z M323.8,165.6c0-0.4,0-0.8,0-1.2c0-0.5-0.3-0.8-0.8-0.8
		c-0.5,0-0.8,0.3-0.8,0.8c0,0.8,0,1.6,0,2.3c0,0.5,0.4,0.8,0.8,0.8c0.4,0,0.7-0.3,0.7-0.8C323.8,166.4,323.8,166,323.8,165.6z"/>
	<path class="st4" d="M316.8,172.1c3.2,0,6.4,0,9.5,0c0.5,0,0.6,0.2,0.6,0.7c0,2.1,0,4.2,0,6.3c0,0.3-0.1,0.5-0.3,0.7
		c-1.6,1.6-3.2,3.2-4.8,4.8c-0.2,0.2-0.4,0.3-0.7,0.3c-4.7,0-9.3,0-14,0c-0.5,0-0.7-0.2-0.7-0.7c0-3.7,0-7.5,0-11.2
		c0-0.1,0-0.1,0-0.2c0-0.4,0.2-0.6,0.6-0.6c1.1,0,2.1,0,3.2,0C312.5,172.1,314.7,172.1,316.8,172.1
		C316.8,172.1,316.8,172.1,316.8,172.1z M307.7,173.1c0,3.6,0,7.1,0,10.7c4.4,0,8.8,0,13.2,0c0-0.1,0-0.2,0-0.3c0-1.4,0-2.8,0-4.2
		c0-0.5,0.2-0.7,0.7-0.7c1.4,0,2.8,0,4.2,0c0.1,0,0.2,0,0.2,0c0-1.9,0-3.7,0-5.6C319.9,173.1,313.8,173.1,307.7,173.1z M322,182.9
		c1.1-1.1,2.1-2.1,3.2-3.2c-1,0-2.1,0-3.2,0C322,180.8,322,181.8,322,182.9z"/>
	<path class="st4" d="M316,176.9c0.6,0,1.2,0,1.8,0c0.4,0,0.6,0.2,0.6,0.6c0,0.6,0,1.2,0,1.8c0,0.4-0.2,0.6-0.6,0.7
		c-0.6,0-1.1,0-1.7,0c0,0.1,0,0.2,0,0.3c0,0.5,0,1,0,1.5c0,0.4-0.2,0.6-0.6,0.7c-0.6,0-1.3,0-1.9,0c-0.4,0-0.6-0.2-0.6-0.6
		c0-0.5,0-1,0-1.5c0-0.1,0-0.2,0-0.3c-0.5,0-1.1,0-1.6,0c-0.1,0-0.2,0-0.3,0c-0.3,0-0.5-0.2-0.5-0.5c0-0.7,0-1.4,0-2.1
		c0-0.3,0.2-0.5,0.6-0.5c0.6,0,1.2,0,1.8,0c0-0.2,0-0.3,0-0.5c0-0.4,0-0.9,0-1.3c0-0.4,0.2-0.6,0.6-0.6c0.6,0,1.3,0,1.9,0
		c0.4,0,0.6,0.2,0.6,0.6c0,0.5,0,1,0,1.5C316,176.6,316,176.7,316,176.9z M317.4,177.9c-0.1,0-0.2,0-0.3,0c-0.5,0-1,0-1.5,0
		c-0.4,0-0.6-0.2-0.6-0.6c0-0.3,0-0.6,0-0.9c0-0.3,0-0.6,0-0.9c-0.4,0-0.7,0-1,0c0,0.6,0,1.1,0,1.6c0,0.6-0.2,0.8-0.8,0.8
		c-0.5,0-1.1,0-1.6,0c0,0.4,0,0.7,0,1c0.6,0,1.2,0,1.8,0c0.4,0,0.6,0.2,0.6,0.6c0,0.2,0,0.4,0,0.6c0,0.4,0,0.8,0,1.1
		c0.4,0,0.7,0,1,0c0,0,0,0,0-0.1c0-0.6,0-1.1,0-1.7c0-0.4,0.2-0.6,0.6-0.6c0.5,0,1,0,1.6,0c0.1,0,0.2,0,0.2,0
		C317.4,178.6,317.4,178.2,317.4,177.9z"/>
</g>
</svg>
