<?xml version="1.0" encoding="utf-8"?>
<!-- Generator: Adobe Illustrator 23.0.6, SVG Export Plug-In . SVG Version: 6.00 Build 0)  -->
<svg version="1.1" id="Layer_1" xmlns="http://www.w3.org/2000/svg" xmlns:xlink="http://www.w3.org/1999/xlink" x="0px" y="0px"
	 width="45.2px" height="45.2px" viewBox="0 0 45.2 45.2" style="enable-background:new 0 0 45.2 45.2;" xml:space="preserve">
<style type="text/css">
	.st0{fill:none;stroke:#0071BC;stroke-miterlimit:10;}
	.st1{fill:#0071BC;}
	.st2{fill:#FFFFFF;}
</style>
<g>
	<circle class="st0" cx="22.6" cy="22.6" r="22.1"/>
	<g>
		<path class="st1" d="M32.5,29.7c0-6.3,0-12.5,0-18.8c0-0.5-0.1-0.6-0.6-0.6c-5.5,0-11,0-16.5,0c-0.3,0-0.6,0-0.9,0.1
			c-1.1,0.3-1.8,1.3-1.8,2.5c0,6.2,0,12.3,0,18.5c0,0.3,0,0.5,0,0.8c0,1,0.4,1.8,1.3,2.3c0.3,0.1,0.6,0.2,0.9,0.3
			c5.8,0,11.6,0,17.4,0c0.2-0.1,0.3-0.3,0.3-0.5C32.5,32.8,32.5,31.3,32.5,29.7z M31.7,34.1c-0.1,0-0.2,0-0.2,0
			c-5.4,0-10.8,0-16.2,0c-0.8,0-1.4-0.4-1.7-1.1c-0.2-0.7,0-1.4,0.5-1.9c0.3-0.2,0.6-0.4,1-0.4c5.4,0,10.8,0,16.2,0
			c0.1,0,0.2,0,0.3,0C31.7,31.8,31.7,32.9,31.7,34.1z"/>
		<path class="st1" d="M29.2,32c-0.1,0-0.2,0-0.3,0c-2.1,0-4.1,0-6.2,0s-4.1,0-6.2,0c-0.1,0-0.2,0-0.3,0c-0.2,0-0.3,0.2-0.3,0.4
			c0,0.2,0.1,0.4,0.4,0.4c0.1,0,0.1,0,0.2,0c4.2,0,8.3,0,12.5,0c0.1,0,0.1,0,0.2,0c0.2,0,0.4-0.2,0.4-0.4
			C29.5,32.2,29.4,32.1,29.2,32z"/>
	</g>
	<path class="st2" d="M26.1,21.7c-0.6,0-1.2,0-1.9,0c0-0.1,0-0.2,0-0.3c0-0.5,0-1,0-1.6c0-0.4-0.2-0.6-0.6-0.6c-0.7,0-1.4,0-2,0
		c-0.4,0-0.6,0.2-0.6,0.6c0,0.5,0,0.9,0,1.4c0,0.2,0,0.3,0,0.5c-0.7,0-1.3,0-1.9,0c-0.4,0-0.6,0.2-0.6,0.6c0,0.7,0,1.4,0,2.2
		c0,0.3,0.2,0.5,0.5,0.6c0.1,0,0.2,0,0.3,0c0.6,0,1.1,0,1.7,0c0,0.1,0,0.2,0,0.3c0,0.5,0,1.1,0,1.6c0,0.4,0.2,0.6,0.6,0.6
		c0.7,0,1.3,0,2,0c0.5,0,0.7-0.2,0.7-0.7c0-0.5,0-1,0-1.6c0-0.1,0-0.2,0-0.3c0.6,0,1.2,0,1.8,0c0.5,0,0.7-0.2,0.7-0.7
		c0-0.6,0-1.3,0-1.9C26.8,21.9,26.6,21.7,26.1,21.7z"/>
	<polygon class="st2" points="25.2,10.3 25.2,16.3 27.1,15.1 29,16.3 28.9,10.3 	"/>
</g>
</svg>
