<?xml version="1.0" encoding="utf-8"?>
<!-- Generator: Adobe Illustrator 23.0.6, SVG Export Plug-In . SVG Version: 6.00 Build 0)  -->
<svg version="1.1" id="Layer_1" xmlns="http://www.w3.org/2000/svg" xmlns:xlink="http://www.w3.org/1999/xlink" x="0px" y="0px"
	 width="45.2px" height="45.2px" viewBox="0 0 45.2 45.2" style="enable-background:new 0 0 45.2 45.2;" xml:space="preserve">
<style type="text/css">
	.st0{fill:none;stroke:#0071BC;stroke-miterlimit:10;}
	.st1{fill:#0071BC;}
</style>
<g>
	<circle class="st0" cx="22.6" cy="22.6" r="22.1"/>
	<g>
		<path class="st1" d="M19.4,32.3c1.1-0.3,2.1-0.5,3.2-0.4c0.8,0.1,1.7,0.2,2.5,0.2c1.2,0.1,2.3,0,3.5-0.2c0.5-0.1,0.7-0.3,0.8-0.8
			c0-0.1,0.2-0.3,0.3-0.4c0.4-0.2,0.9-0.4,1.3-0.6c0.6-0.3,1.2-0.5,1.7-0.8c0.9-0.5,1.7-0.5,2.5,0.1c0.1,0.1,0.2,0.2,0.3,0.3
			c0.1,0.1,0.3,0.1,0.5,0.2C36,30,36,30,35.9,30c-2,1.2-4.1,2.5-6.1,3.7c-1.1,0.7-2.3,1-3.6,1.3c-0.6,0.1-1.2,0.4-1.7,0.6
			c-0.4,0.1-0.7,0.3-1.1,0.4c-0.6,0.2-1.1,0-1.6-0.1c-2.5-0.6-4.9-1.2-7.4-1.8c-1.7-0.4-3.4-0.6-5.1-0.5c-0.1,0-0.1,0-0.2,0
			c0-1.5,0-3,0-4.6c0.3,0.1,0.6,0.1,1,0.2c0.3,0,0.6,0,0.9,0.1c0.5,0,0.9-0.1,1.2-0.4c1.3-0.9,2.8-1.5,4.4-1.7
			c1-0.1,1.9-0.1,2.8,0.4c0.5,0.3,1,0.5,1.5,0.8c0.7,0.5,1.4,0.6,2.2,0.6c1.1,0,2.2,0,3.3,0.1c0.6,0,1.2,0.1,1.7,0.3
			c0.4,0.2,0.7,0.5,0.8,1c0.1,0.5-0.1,0.9-0.7,1c-0.4,0.1-0.8,0.1-1.1,0.2c-1.3,0.2-2.5,0-3.8-0.1c-0.8-0.1-1.5-0.2-2.3,0
			C20.4,31.6,19.9,31.9,19.4,32.3z"/>
		<path class="st1" d="M24.8,21.8c-3.5,0-6.3-2.9-6.3-6.4c0-3.5,2.9-6.3,6.4-6.3c3.5,0,6.3,2.9,6.3,6.4C31.1,19,28.2,21.8,24.8,21.8
			z M26.4,12.9c0.1-0.2,0.2-0.5,0.3-0.8c-0.5-0.1-1-0.3-1.5-0.4c0-0.3,0-0.7,0-1c-0.3,0-0.5,0-0.7,0c0,0.4,0,0.7,0,1.1
			c-0.1,0-0.2,0-0.3,0.1c-0.7,0.2-1.3,0.7-1.4,1.5c-0.1,0.8,0.2,1.4,0.9,1.9c0.3,0.2,0.7,0.3,1,0.5c0.3,0.2,0.6,0.3,0.9,0.5
			c0.6,0.5,0.4,1.5-0.3,1.8c-0.3,0.1-0.7,0.2-1,0.1c-0.5-0.1-0.9-0.2-1.4-0.4c-0.1,0.2-0.2,0.4-0.2,0.7c0.5,0.4,1.1,0.5,1.8,0.5
			c0,0.4,0,0.8,0,1.1c0.3,0,0.5,0,0.7,0c0-0.4,0-0.8,0-1.2c0.1,0,0.2-0.1,0.3-0.1c0.8-0.2,1.4-0.7,1.5-1.6c0.1-0.9-0.2-1.5-0.9-2
			c-0.2-0.1-0.5-0.3-0.8-0.4c-0.4-0.2-0.8-0.4-1.1-0.6c-0.6-0.5-0.4-1.4,0.3-1.6c0.3-0.1,0.6-0.1,0.9-0.1
			C25.6,12.7,26,12.8,26.4,12.9z"/>
		<path class="st1" d="M25.1,24.5c-1.5,0-3.1,0-4.6,0c-0.6,0-1-0.4-0.9-1c0.1-0.4,0.4-0.7,0.9-0.7c1.5,0,3,0,4.5,0
			c1.5,0,3.1,0,4.6,0c0.6,0,0.9,0.3,0.9,0.8c0,0.5-0.4,0.8-0.9,0.8C28.1,24.5,26.6,24.5,25.1,24.5z"/>
		<path class="st1" d="M25.1,25.6c1.5,0,3,0,4.6,0c0.6,0,0.9,0.3,0.9,0.8c0,0.5-0.4,0.8-0.9,0.8c-3.1,0-6.1,0-9.2,0
			c-0.6,0-0.9-0.3-0.9-0.8c0-0.5,0.4-0.8,0.9-0.8C22,25.6,23.6,25.6,25.1,25.6z"/>
	</g>
</g>
</svg>
