<?xml version="1.0" encoding="utf-8"?>
<!-- Generator: Adobe Illustrator 23.0.6, SVG Export Plug-In . SVG Version: 6.00 Build 0)  -->
<svg version="1.1" id="Layer_1" xmlns="http://www.w3.org/2000/svg" xmlns:xlink="http://www.w3.org/1999/xlink" x="0px" y="0px"
	 width="45.2px" height="45.2px" viewBox="0 0 45.2 45.2" style="enable-background:new 0 0 45.2 45.2;" xml:space="preserve">
<style type="text/css">
	.st0{fill:none;stroke:#0071BC;stroke-miterlimit:10;}
	.st1{fill:#0071BC;}
</style>
<g>
	<circle class="st0" cx="22.6" cy="22.6" r="22.1"/>
	<path class="st1" d="M32.1,18.1c0.2,0.2,0.4,0.4,0.7,0.7c-0.3,0.3-0.6,0.5-0.9,0.7c-0.2-0.3-0.4-0.5-0.7-0.7
		C31.6,18.6,31.8,18.4,32.1,18.1z"/>
	<path class="st1" d="M33.2,21.3c-0.2-0.3-0.4-0.6-0.6-0.9c0.3-0.2,0.6-0.4,0.9-0.7c0.2,0.3,0.4,0.6,0.6,1
		C33.9,20.9,33.6,21.1,33.2,21.3z"/>
	<path class="st1" d="M28.7,16.8c-0.3-0.2-0.6-0.3-0.9-0.5c0.1-0.3,0.3-0.6,0.4-1c0.3,0.2,0.6,0.3,1,0.5
		C29,16.2,28.8,16.5,28.7,16.8z"/>
	<path class="st1" d="M30.2,16.5c0.4,0.3,0.6,0.5,0.9,0.7c-0.3,0.3-0.5,0.6-0.7,0.9c-0.3-0.2-0.5-0.4-0.8-0.6
		C29.8,17.1,30,16.8,30.2,16.5z"/>
	<path class="st1" d="M34.7,25.4c-0.1-0.4-0.1-0.6-0.2-1c0.3-0.1,0.7-0.2,1.1-0.3c0.1,0.4,0.2,0.7,0.2,1.1
		C35.4,25.3,35.1,25.3,34.7,25.4z"/>
	<path class="st1" d="M14,17.2c0.3-0.2,0.6-0.4,0.9-0.7c0.2,0.3,0.4,0.6,0.6,0.9c-0.3,0.2-0.5,0.4-0.9,0.6
		C14.5,17.8,14.3,17.5,14,17.2z"/>
	<path class="st1" d="M13.2,19.5c-0.2-0.2-0.5-0.4-0.8-0.7c0.3-0.3,0.5-0.6,0.7-0.8c0.3,0.3,0.5,0.5,0.8,0.8
		C13.7,19,13.4,19.2,13.2,19.5z"/>
	<path class="st1" d="M10.5,25.4c-0.4-0.1-0.7-0.1-1.1-0.2c0.1-0.4,0.1-0.7,0.2-1.1c0.4,0.1,0.7,0.2,1,0.3
		C10.6,24.7,10.6,25,10.5,25.4z"/>
	<path class="st1" d="M16,15.8c0.4-0.2,0.7-0.3,1-0.5c0.1,0.3,0.3,0.6,0.4,1c-0.3,0.2-0.6,0.3-0.9,0.5C16.4,16.5,16.2,16.2,16,15.8z
		"/>
	<path class="st1" d="M10,22.9c0.2-0.4,0.3-0.7,0.4-1.1c0.3,0.2,0.6,0.3,1,0.5c-0.1,0.3-0.2,0.6-0.4,0.9C10.7,23.1,10.4,23,10,22.9z
		"/>
	<path class="st1" d="M10.4,27.5c-0.3,0-0.6,0-1,0.1c0-0.4,0-0.7,0-1.1c0.3,0,0.6,0,1,0C10.4,26.8,10.4,27.1,10.4,27.5z"/>
	<path class="st1" d="M34.9,26.5c0.3,0,0.7,0,1,0c0,0.3,0,0.7,0,1.1c-0.3,0-0.7,0-1-0.1C34.9,27.2,34.9,26.9,34.9,26.5z"/>
	<path class="st1" d="M10.5,28.7c0.1,0.4,0.1,0.7,0.1,1c-0.3,0.1-0.7,0.2-1,0.3c-0.1-0.4-0.1-0.7-0.2-1.1
		C9.7,28.8,10.1,28.8,10.5,28.7z"/>
	<path class="st1" d="M10.9,30.8c0.1,0.3,0.2,0.4,0.2,0.6c0,0.1,0.1,0.2,0.1,0.4c-0.3,0.1-0.6,0.3-1,0.4c-0.1-0.3-0.3-0.7-0.4-1
		C10.2,31,10.5,30.9,10.9,30.8z"/>
	<path class="st1" d="M34.3,30.8c0.3,0.1,0.6,0.2,1,0.3c-0.1,0.4-0.2,0.7-0.4,1C33.8,31.9,33.8,31.8,34.3,30.8z"/>
	<path class="st1" d="M34.2,23.3c-0.1-0.3-0.2-0.6-0.4-0.9c0.3-0.2,0.6-0.3,1-0.5c0.1,0.4,0.3,0.7,0.4,1.1
		C34.8,23.1,34.5,23.2,34.2,23.3z"/>
	<path class="st1" d="M11.6,19.8c0.3,0.2,0.6,0.4,0.9,0.6c-0.2,0.3-0.3,0.5-0.5,0.9c-0.3-0.2-0.6-0.3-0.9-0.5
		C11.2,20.4,11.4,20.1,11.6,19.8z"/>
	<path class="st1" d="M35.8,28.8c-0.1,0.4-0.1,0.7-0.2,1.1c-0.4-0.1-0.7-0.1-1-0.2c0-0.3,0.1-0.7,0.1-1
		C35.1,28.7,35.4,28.8,35.8,28.8z"/>
	<path class="st1" d="M11.2,33.9c-0.1-0.2-0.2-0.4-0.3-0.6c0.3-0.2,0.6-0.3,0.9-0.5c0.1,0.2,0.2,0.3,0.3,0.5
		C11.8,33.5,11.5,33.7,11.2,33.9z"/>
	<path class="st1" d="M34,33.9c-0.4-0.2-0.6-0.4-0.9-0.6c0.1-0.2,0.2-0.3,0.3-0.5c0.3,0.2,0.6,0.3,0.9,0.5
		C34.2,33.5,34.1,33.7,34,33.9z"/>
	<path class="st1" d="M32,26.7c0.4-2.9-1.1-5.8-3.8-7.4c-0.2-0.1-0.4-0.4-0.4-0.7c-0.2-1-0.7-1.8-1.7-2.2c-0.4-0.2-0.5-0.4-0.5-0.7
		c0-1.2,0-2.4,0-3.6c-0.4,0-0.8,0-1.1,0c-0.1-0.6-0.2-1.1,0.5-1.1c0-0.3,0-0.6,0-1c-0.6,0.2-0.6-0.2-0.6-0.6c0-0.4,0-0.8-0.1-1.2
		c-1.5,0-3,0-4.5,0c0,0.4,0,0.8,0,1.2c0.1,0.5,0,0.8-0.6,0.7c0,0.5-0.2,1.1,0.5,1.1c0,0.3,0,0.6,0,0.9c-0.4,0-0.7,0-1.1,0.1
		c0,4.4,0,8.8,0,13.3c0.4,0,0.7,0,1.2,0c0,0.6,0,1.2,0,1.8c1.5,0,3,0,4.5,0c0-0.6,0-1.2,0-1.9c0.4,0,0.8-0.1,1.2-0.1c0-1,0-2,0-2.9
		c0-0.2,0.1-0.4,0.2-0.5c0.6-0.5,1.2-1,1.9-1.5c2.2,1,3.6,3.9,3,6.5c-0.5,2.5-2.8,4.7-4.9,4.7c0-0.1,0-0.2,0-0.2
		c0.3-0.1,0.7-0.1,1-0.2c0-0.3,0-0.7,0-1c-3.3,0-6.6,0-10,0c0,0.4,0,0.7,0,1.1c2.6,0,5.2,0,7.8,0c0,0.7,0,1.3,0,1.9
		c-0.3,0-0.6,0-0.8,0c-3.1,0-6.2,0-9.3,0c-0.9,0-1.5,0.4-1.6,1.2c-0.1,0.8,0,1.7,0,2.6c6.1,0,12.2,0,18.3,0c0-0.7,0-1.5,0-2.2
		c0-1-0.5-1.6-1.6-1.6c-1.1,0-2.2,0-3.3,0c-0.2,0-0.4-0.1-0.6-0.2c0.2-0.1,0.3-0.2,0.5-0.3C29.4,32,31.5,29.7,32,26.7z M26.5,19.8
		c-0.5,1-1.4,1.4-2.2,1.1c-0.9-0.3-1.4-1.1-1.3-2c0.1-0.9,0.9-1.6,1.8-1.6c0.9,0,1.6,0.5,1.8,1.4c-0.3,0-0.6-0.1-0.9-0.1
		c-0.3,0-0.5-0.1-0.8-0.1c0,0.4,0,0.7,0,1.1C25.4,19.6,26,19.7,26.5,19.8z"/>
</g>
</svg>
