<?xml version="1.0" encoding="utf-8"?>
<!-- Generator: Adobe Illustrator 23.0.6, SVG Export Plug-In . SVG Version: 6.00 Build 0)  -->
<svg version="1.1" id="Layer_1" xmlns="http://www.w3.org/2000/svg" xmlns:xlink="http://www.w3.org/1999/xlink" x="0px" y="0px"
	 width="45.2px" height="45.2px" viewBox="0 0 45.2 45.2" style="enable-background:new 0 0 45.2 45.2;" xml:space="preserve">
<style type="text/css">
	.st0{fill:none;stroke:#0071BC;stroke-miterlimit:10;}
	.st1{fill:#0071BC;}
	.st2{fill:#FFFFFF;}
</style>
<g>
	<circle class="st0" cx="22.6" cy="22.6" r="22.1"/>
	<path class="st1" d="M34.8,14c-0.3-0.7-0.8-1-1.5-1c-0.8,0-1.6,0-2.4,0c-0.1,0-0.2,0-0.3,0c0-0.2,0-0.4,0-0.7c0-1-0.8-1.8-1.8-1.8
		c-1,0-1.8,0.8-1.8,1.8c0,0.2,0,0.4,0,0.7c-2.9,0-5.8,0-8.7,0c0-0.3,0-0.5,0-0.8c0-0.9-0.7-1.6-1.6-1.8c-0.8-0.1-1.7,0.5-1.9,1.3
		c0,0.2-0.1,0.4-0.1,0.5c0,0.2,0,0.4,0,0.7c-0.3,0-0.6,0-0.9,0c-0.6,0-1.1,0-1.7,0c-0.8,0-1.3,0.4-1.6,1.2c0,0,0,0,0,0.1
		c0,6.4,0,12.8,0,19.2c0,0,0,0.1,0,0.1c0.2,0.8,0.8,1.2,1.6,1.2c4.7,0,9.4,0,14.1,0c2.3,0,4.6,0,6.8,0c0.9,0,1.5-0.3,1.9-1.1
		c0-6.5,0-13,0-19.5C34.8,14.1,34.8,14,34.8,14z M28.8,11.5c0.5,0,0.8,0.3,0.8,0.8c0,0.4,0,0.8,0,1.2c0,0.4,0,0.8,0,1.2
		c0,0.5-0.3,0.8-0.7,0.8c-0.4,0-0.8-0.4-0.8-0.8c0-0.8,0-1.6,0-2.3C28,11.8,28.3,11.5,28.8,11.5z M16.4,11.5c0.5,0,0.8,0.3,0.8,0.8
		c0,0.4,0,0.8,0,1.2c0,0.4,0,0.8,0,1.2c0,0.5-0.3,0.8-0.8,0.8c-0.4,0-0.8-0.4-0.8-0.8c0-0.8,0-1.6,0-2.4
		C15.7,11.8,16,11.5,16.4,11.5z M12.1,14c0.9,0,1.7,0,2.6,0c0,0.3,0,0.5,0,0.7c0,1,0.8,1.8,1.8,1.8c1,0,1.8-0.8,1.8-1.8
		c0-0.2,0-0.4,0-0.7c2.9,0,5.8,0,8.7,0c0,0.2,0,0.4,0,0.6c0,1.1,0.8,1.9,1.8,1.9c1,0,1.8-0.8,1.8-1.9c0-0.2,0-0.4,0-0.6
		c0.3,0,0.6,0,0.9,0c0.6,0,1.2,0,1.7,0c0.4,0,0.6,0.2,0.6,0.6c0,1.1,0,2.1,0,3.2c0,0,0,0.1,0,0.1c-0.1,0-0.3,0-0.4,0
		c-7.2,0-14.5,0-21.7,0c-0.4,0-0.4,0-0.4-0.4c0-0.9,0-1.9,0-2.8C11.4,14.2,11.6,14,12.1,14z"/>
	<path class="st2" d="M12.9,20.4v11.6h14.4l5.2-5.2v-6.4C32.5,20.5,12.9,20.4,12.9,20.4z"/>
	<path class="st1" d="M22.6,19.9c3.2,0,6.4,0,9.5,0c0.5,0,0.6,0.2,0.6,0.7c0,2.1,0,4.2,0,6.3c0,0.3-0.1,0.5-0.3,0.7
		c-1.6,1.6-3.2,3.2-4.8,4.8c-0.2,0.2-0.4,0.3-0.7,0.3c-4.7,0-9.3,0-14,0c-0.5,0-0.7-0.2-0.7-0.7c0-3.7,0-7.5,0-11.2
		c0-0.1,0-0.1,0-0.2c0-0.4,0.2-0.6,0.6-0.6c1.1,0,2.1,0,3.2,0C18.3,19.9,20.5,19.9,22.6,19.9C22.6,19.9,22.6,19.9,22.6,19.9z
		 M13.5,21c0,3.6,0,7.1,0,10.7c4.4,0,8.8,0,13.2,0c0-0.1,0-0.2,0-0.3c0-1.4,0-2.8,0-4.2c0-0.5,0.2-0.7,0.7-0.7c1.4,0,2.8,0,4.2,0
		c0.1,0,0.2,0,0.2,0c0-1.9,0-3.7,0-5.6C25.7,21,19.6,21,13.5,21z M27.8,30.8c1.1-1.1,2.1-2.1,3.2-3.2c-1,0-2.1,0-3.2,0
		C27.8,28.7,27.8,29.7,27.8,30.8z"/>
	<path class="st1" d="M23.6,24.7c-0.6,0-1.1,0-1.8,0c0-0.1,0-0.2,0-0.3c0-0.5,0-1,0-1.5c0-0.4-0.2-0.6-0.6-0.6c-0.6,0-1.3,0-1.9,0
		c-0.4,0-0.6,0.2-0.6,0.6c0,0.4,0,0.9,0,1.3c0,0.2,0,0.3,0,0.5c-0.6,0-1.2,0-1.8,0c-0.3,0-0.6,0.2-0.6,0.5c0,0.7,0,1.4,0,2.1
		c0,0.3,0.2,0.5,0.5,0.5c0.1,0,0.2,0,0.3,0c0.5,0,1.1,0,1.6,0c0,0.1,0,0.2,0,0.3c0,0.5,0,1,0,1.5c0,0.4,0.2,0.6,0.6,0.6
		c0.6,0,1.3,0,1.9,0c0.4,0,0.6-0.2,0.6-0.7c0-0.5,0-1,0-1.5c0-0.1,0-0.2,0-0.3c0.6,0,1.2,0,1.7,0c0.4,0,0.6-0.2,0.6-0.7
		c0-0.6,0-1.2,0-1.8C24.2,25,24,24.7,23.6,24.7z"/>
</g>
</svg>
