<?xml version="1.0" encoding="utf-8"?>
<!-- Generator: Adobe Illustrator 23.0.6, SVG Export Plug-In . SVG Version: 6.00 Build 0)  -->
<svg version="1.1" id="Layer_1" xmlns="http://www.w3.org/2000/svg" xmlns:xlink="http://www.w3.org/1999/xlink" x="0px" y="0px"
	 width="230px" height="42px" viewBox="0 0 230 42" style="enable-background:new 0 0 230 42;" xml:space="preserve">
<style type="text/css">
	.st0{fill:#FFFFFF;}
</style>
<g>
	<g>
		<g>
			<g>
				<path class="st0" d="M2.8,41.2V0.1h5v23.4l11.9-12.1h6.5L15,22.5l12.5,18.7h-6.2L11.4,26l-3.6,3.4v11.8H2.8z"/>
				<path class="st0" d="M63.5,41.2V11.4H68v4.2c2.2-3.3,5.3-4.9,9.5-4.9c1.8,0,3.4,0.3,5,1c1.5,0.6,2.6,1.5,3.4,2.5
					c0.7,1,1.3,2.3,1.6,3.7c0.2,0.9,0.3,2.6,0.3,4.9v18.3h-5V23.1c0-2.1-0.2-3.6-0.6-4.6c-0.4-1-1.1-1.8-2.1-2.4
					c-1-0.6-2.2-0.9-3.5-0.9c-2.2,0-4,0.7-5.6,2c-1.6,1.4-2.3,4-2.3,7.8v16.3H63.5z"/>
				<path class="st0" d="M115.8,31.6l5.2,0.6c-0.8,3-2.3,5.4-4.6,7.1c-2.2,1.7-5.1,2.5-8.5,2.5c-4.4,0-7.8-1.3-10.4-4
					c-2.6-2.7-3.8-6.4-3.8-11.3c0-5,1.3-8.9,3.9-11.7c2.6-2.8,5.9-4.2,10-4.2c4,0,7.2,1.4,9.8,4.1c2.5,2.7,3.8,6.5,3.8,11.4
					c0,0.3,0,0.7,0,1.3H99c0.2,3.3,1.1,5.8,2.8,7.5c1.7,1.7,3.7,2.6,6.2,2.6c1.9,0,3.4-0.5,4.7-1.5C114,35.3,115.1,33.8,115.8,31.6z
					 M99.2,23.5h16.6c-0.2-2.5-0.9-4.4-1.9-5.6c-1.6-1.9-3.7-2.9-6.3-2.9c-2.3,0-4.3,0.8-5.8,2.3C100.3,18.8,99.4,20.9,99.2,23.5z"
					/>
				<path class="st0" d="M146.8,30.3l5,0.6c-0.5,3.4-1.9,6.1-4.2,8c-2.2,1.9-5,2.9-8.2,2.9c-4.1,0-7.4-1.3-9.8-4
					c-2.5-2.7-3.7-6.5-3.7-11.5c0-3.2,0.5-6,1.6-8.4s2.7-4.2,4.9-5.4c2.2-1.2,4.5-1.8,7.1-1.8c3.2,0,5.9,0.8,7.9,2.5
					c2.1,1.6,3.4,4,4,7l-4.9,0.8c-0.5-2-1.3-3.5-2.5-4.5c-1.2-1-2.6-1.5-4.3-1.5c-2.5,0-4.6,0.9-6.2,2.7c-1.6,1.8-2.4,4.7-2.4,8.7
					c0,4,0.8,6.9,2.3,8.7c1.5,1.8,3.5,2.7,6,2.7c2,0,3.6-0.6,5-1.8C145.6,34.7,146.5,32.8,146.8,30.3z"/>
				<path class="st0" d="M167.1,36.7l0.7,4.5c-1.4,0.3-2.7,0.4-3.8,0.4c-1.8,0-3.3-0.3-4.3-0.9c-1-0.6-1.7-1.3-2.1-2.3
					c-0.4-0.9-0.6-2.9-0.6-6V15.4h-3.7v-3.9h3.7V4.1l5-3v10.4h5.1v3.9H162v17.4c0,1.4,0.1,2.4,0.3,2.8c0.2,0.4,0.5,0.7,0.9,1
					c0.4,0.2,1,0.4,1.7,0.4C165.5,36.9,166.2,36.8,167.1,36.7z"/>
				<path class="st0" d="M191.5,37.5c-1.9,1.6-3.7,2.7-5.4,3.4c-1.7,0.7-3.6,1-5.6,1c-3.3,0-5.8-0.8-7.5-2.4
					c-1.8-1.6-2.6-3.6-2.6-6.1c0-1.5,0.3-2.8,1-4c0.7-1.2,1.5-2.2,2.6-2.9c1.1-0.7,2.3-1.3,3.6-1.7c1-0.3,2.5-0.5,4.5-0.8
					c4.1-0.5,7.1-1.1,9-1.7c0-0.7,0-1.1,0-1.3c0-2.1-0.5-3.5-1.4-4.3c-1.3-1.1-3.2-1.7-5.8-1.7c-2.4,0-4.1,0.4-5.3,1.2
					c-1.1,0.8-2,2.3-2.5,4.4l-4.9-0.7c0.4-2.1,1.2-3.8,2.2-5.1c1-1.3,2.5-2.3,4.5-3c1.9-0.7,4.2-1.1,6.8-1.1c2.5,0,4.6,0.3,6.2,0.9
					c1.6,0.6,2.8,1.4,3.5,2.3c0.7,0.9,1.3,2.1,1.6,3.4c0.2,0.9,0.3,2.4,0.3,4.7v6.7c0,4.7,0.1,7.7,0.3,8.9c0.2,1.2,0.6,2.4,1.3,3.6
					h-5.3C192,40.2,191.6,39,191.5,37.5z M191.1,26.3c-1.8,0.7-4.6,1.4-8.2,1.9c-2.1,0.3-3.5,0.6-4.4,1c-0.9,0.4-1.5,0.9-2,1.6
					c-0.5,0.7-0.7,1.5-0.7,2.4c0,1.3,0.5,2.5,1.5,3.4c1,0.9,2.5,1.3,4.5,1.3c1.9,0,3.7-0.4,5.2-1.3c1.5-0.9,2.6-2,3.3-3.5
					c0.5-1.1,0.8-2.8,0.8-5V26.3z"/>
				<path class="st0" d="M204,41.2V11.4h4.5V16c1.2-2.1,2.2-3.5,3.2-4.2c1-0.7,2.1-1,3.2-1c1.7,0,3.4,0.5,5.2,1.6l-1.7,4.7
					c-1.2-0.7-2.5-1.1-3.7-1.1c-1.1,0-2.1,0.3-3,1c-0.9,0.7-1.5,1.6-1.9,2.8c-0.6,1.8-0.8,3.8-0.8,5.9v15.6H204z"/>
				<g>
					<circle class="st0" cx="43.6" cy="38.4" r="2.8"/>
					<circle class="st0" cx="43.6" cy="13.6" r="2.8"/>
					<path class="st0" d="M40.8,35.3c-4-1.2-6.9-4.9-6.9-9.3c0-4.4,2.9-8.1,6.9-9.3c-0.8-0.8-1.4-1.9-1.4-3.1c0-0.8,0.2-1.5,0.6-2.1
						c0,0,0,0,0,0C33.5,13.1,28.6,19,28.6,26c0,7,4.9,12.9,11.4,14.5c0,0,0,0,0,0c-0.4-0.6-0.6-1.4-0.6-2.1
						C39.4,37.1,39.9,36,40.8,35.3z"/>
					<path class="st0" d="M47.2,11.4c0.4,0.6,0.6,1.4,0.6,2.2c0,1.2-0.5,2.3-1.4,3.1c4,1.2,6.9,4.9,6.9,9.3c0,4.4-2.9,8.1-6.9,9.3
						c0.8,0.8,1.4,1.9,1.4,3.1c0,0.8-0.2,1.5-0.6,2.2C53.7,38.9,58.6,33,58.6,26C58.6,19,53.7,13,47.2,11.4z"/>
				</g>
			</g>
		</g>
	</g>
	<g>
		<path class="st0" d="M227.2,6c0,2.1-1.7,3.8-3.8,3.8c-2.1,0-3.8-1.7-3.8-3.8c0-2.1,1.7-3.7,3.8-3.7C225.5,2.3,227.2,4,227.2,6z
			 M220.5,6c0,1.7,1.2,3,2.9,3c1.6,0,2.8-1.3,2.8-2.9c0-1.7-1.2-3-2.9-3C221.7,3.1,220.5,4.4,220.5,6z M222.8,8h-0.9V4.3
			c0.3-0.1,0.8-0.1,1.4-0.1c0.7,0,1,0.1,1.3,0.3c0.2,0.2,0.4,0.5,0.4,0.8c0,0.4-0.3,0.7-0.8,0.9v0c0.4,0.1,0.6,0.4,0.7,0.9
			c0.1,0.6,0.2,0.8,0.3,0.9h-0.9c-0.1-0.1-0.2-0.5-0.3-0.9c-0.1-0.4-0.3-0.6-0.8-0.6h-0.4V8z M222.8,5.9h0.4c0.5,0,0.9-0.2,0.9-0.5
			c0-0.3-0.2-0.6-0.8-0.6c-0.2,0-0.4,0-0.5,0V5.9z"/>
	</g>
</g>
</svg>
