<?xml version="1.0" encoding="utf-8"?>
<!-- Generator: Adobe Illustrator 23.0.6, SVG Export Plug-In . SVG Version: 6.00 Build 0)  -->
<svg version="1.1" id="Layer_1" xmlns="http://www.w3.org/2000/svg" xmlns:xlink="http://www.w3.org/1999/xlink" x="0px" y="0px"
	 width="72.5px" height="72.5px" viewBox="0 0 72.5 72.5" style="enable-background:new 0 0 72.5 72.5;" xml:space="preserve">
<style type="text/css">
	.st0{fill:#FFFFFF;}
	.st1{fill:#F56830;}
</style>
<circle class="st0" cx="36.2" cy="36.2" r="35"/>
<g>
	<path class="st1" d="M51.5,20.6c0.1-0.2,0.1-0.5,0.2-0.7c0.1-0.3,0.4-0.5,0.7-0.3c0.3,0.2,0.6,0.5,0.9,0.8c0.1,0.1,0.2,0.2,0.4,0.2
		c0.2,0,0.5-0.1,0.7,0c0.2,0.1,0.5,0.2,0.7,0.3c0.5,0.4,1,0.6,1.6,0.7c0.3,0.1,0.5,0.2,0.5,0.5c0,0.7,0,1.4-0.1,2
		c-0.1,0.6-0.6,0.9-1.1,1.1c-0.7,0.3-1.4,0.5-2,0.8c-0.1,0-0.2,0.1-0.4,0.1c0.6,0.2,1.1,0.1,1.6,0c0.2,0,0.3-0.1,0.4-0.1
		c0.6-0.1,0.6-0.1,0.8,0.4c0.7,1.6,1.2,3.3,1,5.1c-0.1,1.3-0.5,2.4-1.4,3.3c-0.5,0.6-1.1,1.2-1.3,2c-0.5,1.3-0.5,2.6,0,4
		c0.2,0.6,0.5,0.8,1.2,0.6c0.8-0.2,1.5,0.2,1.8,0.8c0.2,0.4,0.1,0.7-0.3,0.7c-1,0.2-2,0.4-3,0.5c-3.1,0.1-6.1,0-9.2,0
		c-0.3,0-0.5,0.1-0.6,0.3c-1.9,2.7-2.3,5.5-0.7,8.4c1.6,2.9,4.1,4.2,7.4,4c1.1-0.1,2.2-0.4,3.2-1c0.9-0.5,1.9,0,2,0.9
		c0.1,0.6-0.2,1.1-0.7,1.4c-3,1.6-6,1.9-9.2,0.6c-4.1-1.7-6.6-5.7-6.3-10.1c0.1-1.9,0.6-3.6,1.7-5.1c0.2-0.3,0.2-0.5,0.1-0.9
		c-0.7-2.3-0.9-4.7-0.1-7.1c0.9-3,3-5.1,5.7-6.6c0.3-0.2,0.6-0.3,0.9-0.4c0.3-0.1,0.4-0.3,0.4-0.6c0.2-1.4,0.7-2.7,1.3-4
		c0.2-0.3,0.2-0.5,0-0.8c-0.2-0.5-0.5-1.1-0.5-1.7c-0.1-0.8,0.3-1,1-0.8C50.9,20.4,51.2,20.5,51.5,20.6z"/>
	<g>
		<path class="st1" d="M28.6,42.1c-0.9-0.4-1.3-1.2-1.6-2.1c-0.6-2.1,0.1-4.1,1.9-5.3c0.8-0.6,1.8-1,2.8-1.2c0.1,0,0.1,0,0.2-0.1
			c-1,0-1.9,0.2-2.8,0.7c-0.8,0.5-1.5,1.2-2.1,2c-0.4-0.9-0.5-1.8-0.6-2.7c0,0.1,0,0.2,0,0.4c-0.1,0.8-0.1,1.7-0.2,2.5
			c-0.1,1-0.6,1.9-1.1,2.8c-0.6,1.1-1.2,2.1-1.7,3.2c-0.5,1-1.2,1.5-2.3,1.5c-0.5,0-1,0-1.4-0.1c-0.5-0.1-0.6-0.3-0.4-0.8
			c0.1-0.2,0.2-0.3,0.3-0.5c-0.2-0.1-0.5-0.1-0.7-0.2c-0.3-0.1-0.3-0.3-0.3-0.5c0.2-0.8,1.1-1.4,1.9-1.3c0.3,0.1,0.6-0.1,0.7-0.3
			c0.7-1.2,1.1-2.5,1.3-3.8c0.1-0.5,0.2-1,0.3-1.5c0-0.1,0-0.3-0.1-0.5c-0.6-1-1.2-1.9-1.9-2.9c-0.5-0.6-0.6-1.3-0.6-2
			c0-1.1,0.1-2.1,0.1-3.2c0-0.5,0-1,0-1.5c2.6-0.7,4.9-2,6.8-3.9c1.2,0.6,2.2,1.6,2.7,2.9c0.3,0.7,0.7,1.1,1.3,1.5
			c2.4,1.3,4.3,3.1,5.3,5.6c1.3,3.3,1.3,6.6-0.2,9.8c-0.1,0.2-0.2,0.4-0.3,0.6c0,0,0,0,0,0.1c1.8,0.8,2.9,2.2,3.5,4
			c1.3,3.8-0.4,7.5-4.2,9.1c-1.4,0.6-2.9,0.9-4.5,1.1c-1.9,0.2-3.8,0.3-5.6,0.5c-1.4,0.1-2.8,0.4-4.1,1c0,0,0,0-0.1,0
			c1.6-3.2,4.4-4.4,7.8-4.6c-0.1-0.1-0.3-0.2-0.4-0.2c-0.7-0.2-1.4-0.2-2.1-0.1c-0.2,0-0.5,0.1-0.8,0.1c1.4-1.4,3-2.3,4.9-2.8
			c1.8-0.5,3.7-0.7,5.6-0.3c-0.4-0.5-1.8-0.9-3.5-0.5c0.1-0.1,0.2-0.2,0.2-0.2c0.8-0.8,1.6-1.6,2.2-2.5c0.4-0.6,0.7-1.3,0.7-2
			c0-0.7-0.4-1.2-0.9-1.6c0,0,0,0.1,0,0.1c0.1,0.9-0.3,1.4-1.3,1.5c-0.1,0-0.1,0-0.2,0c-3,0-6.1,0-9.1,0c-0.1,0-0.2,0-0.4,0
			c-0.4,0-0.5-0.1-0.4-0.5c0.1-0.8,0.8-1.3,1.6-1.2c0.6,0.1,1.1,0.2,1.7,0.3C27.3,42.4,27.9,42.2,28.6,42.1z"/>
		<path class="st1" d="M20.3,23.9c0-0.3-0.1-0.5-0.1-0.8c-0.5,0.8-1.1,1.3-2,1.3c-0.8,0.1-1.6-0.2-2.3-0.6c0.3-0.3,0.4-0.4,0.2-0.7
			c-0.2,0.1-0.3,0.3-0.5,0.4c-0.2,0-0.5-0.1-0.7-0.1c0.5-0.9,1-1.7,1.6-2.4c0.1-0.1,0.2-0.3,0.2-0.5c-0.1-1,0.2-2,0.8-2.9
			c-0.2-0.3-0.5-0.6-0.7-0.9c-0.3-0.4-0.6-0.9-0.8-1.3c-0.2-0.5,0-0.8,0.6-0.9c0.2,0,0.4,0,0.7,0c0-0.2-0.1-0.4-0.1-0.6
			c0-0.5,0.2-0.8,0.7-0.7c0.3,0,0.7,0.1,1,0.3c0.7,0.4,1.4,1,2.1,1.4c0.1,0.1,0.2,0.2,0.4,0.2c2.3,0.9,4,2.6,5.1,4.8
			c0,0.1,0,0.2-0.1,0.3c-0.6,0.5-1.2,1.1-1.8,1.5c-1.3,0.9-2.7,1.5-4.2,1.9C20.4,23.9,20.3,23.9,20.3,23.9z"/>
		<path class="st1" d="M20.2,25.2c0,0.5-0.1,0.8-0.4,1.1c-0.1,0.1-0.3,0.2-0.4,0.2c-0.1,0-0.3-0.2-0.3-0.3c-0.1-0.5,0-1.1,0.3-1.5
			c0.1-0.1,0.3-0.2,0.5-0.2c0.1,0,0.2,0.2,0.3,0.4C20.2,24.9,20.1,25.1,20.2,25.2z"/>
	</g>
</g>
</svg>
